<svg width="112" height="112" viewBox="0 0 112 112" fill="none" xmlns="http://www.w3.org/2000/svg">
<g filter="url(#filter0_d)">
<circle cx="56" cy="52" r="52" fill="#F58021"/>
</g>
<path fill-rule="evenodd" clip-rule="evenodd" d="M55.0595 22.5096C56.0006 22.4569 56.8981 22.6501 57.8218 22.9749C57.7913 23.062 57.763 23.1476 57.7352 23.2318L57.7352 23.2318C57.6677 23.4359 57.6032 23.6313 57.5168 23.8178C57.251 24.3929 56.9809 24.9681 56.7108 25.5432C56.4406 26.1183 56.1705 26.6934 55.9047 27.2685L55.904 27.2701C55.7609 27.5803 55.6912 27.7314 55.574 27.795C55.4628 27.8555 55.3089 27.8372 55.0087 27.8016L54.9549 27.7953C54.6499 27.7602 54.4669 27.6285 54.4234 27.3299C54.4049 27.2042 54.3815 27.0779 54.3581 26.9514L54.3581 26.9514L54.3581 26.9513L54.358 26.9513L54.358 26.9513L54.358 26.9512L54.358 26.9512L54.358 26.9512L54.358 26.9511L54.358 26.9511L54.358 26.9511C54.2931 26.6007 54.2281 26.2494 54.2665 25.9075C54.3627 25.0629 54.5185 24.2237 54.6741 23.3856L54.6741 23.3856L54.6741 23.3855L54.6741 23.3854L54.6741 23.3853L54.6742 23.3852L54.6742 23.3851L54.6742 23.3851L54.6742 23.385L54.6742 23.385L54.6742 23.3849L54.6742 23.3849C54.7159 23.1604 54.7576 22.936 54.798 22.7115C54.8155 22.6325 54.9636 22.5184 55.0595 22.5096ZM49.1873 25.3552L49.1875 25.3555L49.1875 25.3555L49.1876 25.3556C49.7653 26.2214 50.3306 27.0685 50.9206 27.9008C51.1384 28.2168 51.4347 28.4978 51.914 28.3046C52.646 28.0237 52.8289 27.8305 52.6111 27.0579C52.3504 26.1187 52.5122 25.2156 52.6746 24.3093L52.6746 24.3093C52.6913 24.2158 52.7081 24.1223 52.7244 24.0287C52.7854 23.695 52.7767 23.3263 52.6982 22.9926C52.6634 22.8346 52.3497 22.5975 52.2277 22.6238C50.8945 22.9575 49.7268 23.616 48.6114 24.494C48.8056 24.7832 48.9971 25.0702 49.1873 25.3552ZM45.7645 32.0505C46.3749 32.4996 46.9872 32.95 47.6104 33.4059C47.4012 34.4157 46.861 34.9864 45.8066 35.1005C44.3514 35.2498 43.1227 34.6527 42.016 33.7572C41.955 33.7045 41.9289 33.5113 41.9725 33.4235C42.0364 33.2801 42.1001 33.1364 42.1638 32.9926L42.1644 32.9912L42.1652 32.9894L42.1655 32.9889L42.1662 32.9873L42.1662 32.9872L42.1662 32.9872L42.1662 32.9872L42.1662 32.9871L42.1662 32.9871L42.1663 32.9871L42.1663 32.987L42.1663 32.987L42.1663 32.987L42.1663 32.9869L42.1664 32.9869L42.1664 32.9869L42.1664 32.9868L42.1664 32.9868C42.449 32.349 42.7322 31.7098 43.0443 31.088C43.1281 30.9131 43.2653 30.7671 43.3967 30.6275L43.3968 30.6274C43.4566 30.5638 43.5153 30.5014 43.5671 30.4382C44.3065 30.9779 45.033 31.5124 45.7621 32.0488L45.7636 32.0499L45.7639 32.0501L45.7645 32.0505ZM46.1541 37.4169C44.5072 37.0043 42.9125 36.6004 41.1959 36.1614C41.1591 36.3652 41.118 36.5755 41.076 36.7904L41.076 36.7905C40.9986 37.1867 40.9182 37.5985 40.856 38.014C40.7964 38.4075 40.757 38.8044 40.7168 39.2089V39.2089C40.6925 39.4543 40.6678 39.7025 40.6382 39.9544C42.015 40.6481 43.4267 40.8412 44.8209 40.0335C45.8143 39.4715 46.2064 38.5408 46.1541 37.4169ZM40.6992 42.0716C40.4377 43.4589 40.6469 44.7671 41.1348 46.0403C41.1784 46.1456 41.2917 46.2598 41.3963 46.2949C43.4527 46.9885 45.7706 45.6013 46.0931 43.7311C46.1366 43.4764 46.1541 43.2043 46.1366 42.9496C46.0321 41.8345 45.8229 41.6765 44.7424 41.8345L44.4311 41.8801C43.6895 41.9889 42.9471 42.0978 42.1979 42.1594C41.8689 42.1835 41.5316 42.1497 41.1833 42.1147C41.0243 42.0988 40.863 42.0826 40.6992 42.0716ZM46.555 50.3061C47.2521 48.8134 47.0342 47.7422 45.8578 46.8115C44.6379 47.7422 43.2262 48.0847 41.71 48.1373C41.6055 48.1373 41.4312 48.2866 41.405 48.4007C41.1698 49.5158 41.5009 50.508 42.1196 51.4211C42.1691 51.4932 42.2638 51.5303 42.3708 51.5722C42.4332 51.5966 42.4998 51.6226 42.564 51.6582C42.5338 51.6785 42.5044 51.6987 42.4752 51.7188L42.4752 51.7188C42.4033 51.7683 42.3334 51.8164 42.259 51.8601C40.6731 52.8172 39.3921 54.0728 38.634 55.7849C37.6406 58.0414 37.2834 60.3682 38.1809 62.7652C38.3424 63.1961 38.491 63.6348 38.6394 64.0727L38.6394 64.0729L38.6395 64.073L38.6395 64.0732L38.6396 64.0733L38.6396 64.0734L38.6396 64.0736L38.6397 64.0737L38.6397 64.0738L38.6398 64.074L38.6398 64.0741L38.6399 64.0742L38.6399 64.0744L38.64 64.0745L38.64 64.0747L38.6401 64.0748L38.6401 64.0749L38.6402 64.0751C38.7636 64.4396 38.8869 64.8036 39.0174 65.1622C39.4531 66.3739 39.488 67.6206 39.1394 68.8323C38.1112 72.3707 39.0784 75.6194 40.4465 78.8242C40.5666 79.0921 40.7626 79.3344 40.9515 79.568L40.9606 79.5793C41.222 79.9042 41.5619 80.0095 41.9714 79.8691C42.381 79.7198 42.6773 79.4476 42.6598 79.0174C42.6424 78.4642 42.5727 77.9111 42.442 77.3755C42.3418 76.9496 42.2198 76.5282 42.0978 76.1067C41.9758 75.6853 41.8538 75.2638 41.7536 74.838C41.4748 73.6351 41.832 72.6429 42.808 71.8966C42.8496 71.8659 42.8903 71.8342 42.9308 71.8028L42.9309 71.8027L42.931 71.8027L42.9311 71.8026L42.9312 71.8025L42.9312 71.8025L42.9313 71.8024L42.9313 71.8024L42.9314 71.8023L42.9316 71.8022C43.0178 71.7352 43.1026 71.6693 43.1914 71.6156C44.664 70.764 45.5703 69.4294 46.3197 67.9455C46.5289 67.5238 46.7998 67.131 47.0702 66.7388L47.0702 66.7387C47.1939 66.5594 47.3175 66.3801 47.4351 66.1982L47.5396 66.2509C47.5919 66.4968 47.6453 66.7426 47.6986 66.9884L47.6987 66.9886C47.8588 67.7261 48.0189 68.4636 48.1496 69.2011C48.7334 72.4059 50.6156 74.8204 52.7941 77.0682C53.009 77.2933 53.2917 77.4587 53.5586 77.6148L53.5697 77.6213C53.9356 77.8408 54.3103 77.8408 54.6589 77.5511C55.0162 77.2525 55.1469 76.875 54.99 76.4535C54.8332 76.0497 54.6328 75.6545 54.3888 75.2946C54.1357 74.9263 53.8625 74.5732 53.5895 74.2204C53.3548 73.9171 53.1202 73.614 52.8987 73.3014C51.8617 71.8439 51.8182 70.8166 52.8377 69.3591C53.6481 68.1914 54.2058 66.9182 54.7025 65.5397C54.8411 65.6047 54.9774 65.6649 55.1108 65.7238L55.111 65.7239L55.1111 65.7239L55.1112 65.724L55.1113 65.724L55.1115 65.7241C55.3384 65.8243 55.5572 65.9209 55.7656 66.0314C57.9092 67.208 59.225 69.0606 60.0092 71.3347C60.3278 72.2417 60.6022 73.1653 60.8764 74.0879L60.8765 74.0881L60.8767 74.0887C60.9475 74.3269 61.0183 74.5651 61.0898 74.8029C61.3425 75.6458 61.752 76.3921 62.3097 77.0594C62.5225 77.3123 62.735 77.5653 62.9474 77.8182L62.9474 77.8182L62.9475 77.8182L62.9475 77.8182C63.9443 79.0048 64.9393 80.1892 65.9521 81.3617C66.2397 81.6953 66.5882 82.0114 66.9629 82.2485C67.6426 82.6787 68.3049 82.547 68.9323 81.9412C69.3854 81.5022 69.4638 80.9578 69.0543 80.2642C68.8193 79.8647 68.5163 79.5026 68.2183 79.1464L68.2182 79.1463L68.2182 79.1463L68.2181 79.1462L68.2177 79.1457C68.1622 79.0794 68.1069 79.0133 68.0522 78.9471C67.8779 78.7364 67.6775 78.5345 67.4683 78.3589C65.6994 76.8399 65.2637 74.8292 65.3422 72.6254C65.3548 72.2553 65.3997 71.8853 65.4433 71.5254L65.4433 71.5253C65.4598 71.3899 65.476 71.2559 65.4903 71.124C65.7629 71.0715 66.0323 71.019 66.2958 70.9677L66.2974 70.9674C66.7829 70.8728 67.2485 70.7821 67.6775 70.7025C67.84 71.0632 67.992 71.4319 68.1443 71.8012C68.474 72.6004 68.8049 73.4029 69.246 74.1356C69.8947 75.2156 70.6633 76.2208 71.4317 77.2258L71.4321 77.2263L71.4322 77.2265L71.4322 77.2265C71.6132 77.4632 71.7941 77.6998 71.9734 77.9374C72.2784 78.3413 72.688 78.6662 73.2457 78.5345C73.5419 78.4642 73.7685 77.6564 73.6204 77.0857C73.4809 76.5501 73.3154 76.0058 73.0453 75.5316C71.8427 73.398 71.3809 71.0537 71.0585 68.6743C70.8929 67.4626 70.1784 66.9182 68.9759 67.1553C66.7277 67.6031 64.4708 67.8226 62.179 67.6206C62.0222 67.6031 61.8654 67.568 61.7086 67.5329L61.7085 67.5328C60.0877 67.1465 59.4428 65.6363 60.2794 64.17C60.3055 64.1173 60.3317 64.0647 60.3752 64.0208C61.1543 63.2293 61.5765 62.2461 62.0005 61.2589C62.1504 60.91 62.3004 60.5606 62.4666 60.2189C62.7977 59.5516 63.4251 58.9897 64.0264 58.498C64.767 57.9009 65.6733 57.6024 66.6057 57.4005C66.7364 57.3741 66.9281 57.2512 66.9542 57.1458C66.9804 57.0229 66.8758 56.7946 66.7712 56.742C66.7047 56.7103 66.6378 56.6778 66.5705 56.6451C66.1709 56.4507 65.7586 56.2502 65.3334 56.1976C64.6363 56.1098 63.9131 56.1273 63.2072 56.1976C62.423 56.2766 61.7259 56.0308 61.0723 55.7147C60.3752 55.381 59.713 54.9244 59.0856 54.4679C57.3689 53.2123 55.6349 51.9919 53.6655 51.1577C51.5567 50.2534 49.3696 49.9548 47.1039 50.2885C46.9384 50.2709 46.7554 50.2797 46.555 50.3061ZM56.1134 48.616C55.4162 49.055 54.6581 49.2482 53.839 49.2482C53.0548 49.2219 52.3054 49.0638 51.6693 48.5721C50.9634 48.0365 50.6933 47.2463 51.1029 46.4824C51.3643 46.0017 51.7286 45.5803 52.093 45.1588L52.0931 45.1587L52.0932 45.1586L52.0933 45.1584L52.0934 45.1583L52.0936 45.1581L52.0937 45.158L52.0938 45.1578L52.0939 45.1577L52.094 45.1576L52.0942 45.1574L52.0943 45.1573L52.0944 45.1571L52.0944 45.1571L52.0944 45.1571L52.0945 45.1571L52.0945 45.1571C52.2154 45.0172 52.3364 44.8773 52.4535 44.7352C52.5145 44.6649 52.6626 44.6386 52.7672 44.6474C54.6581 44.8318 56.1221 46.14 56.4619 47.7907C56.549 48.1946 56.4358 48.4141 56.1134 48.616ZM46.6504 26.032C47.6437 26.7871 49.038 28.508 49.9878 30.1323L49.8898 30.2573L49.8898 30.2573L49.8898 30.2573L49.8896 30.2575L49.8895 30.2576L49.8894 30.2578C49.6648 30.544 49.4526 30.8144 49.2471 31.0982C49.0641 31.3528 48.8463 31.4143 48.5326 31.3177C46.9205 30.7996 45.8138 29.6407 44.6462 28.3939C45.3252 27.5956 45.9869 26.8149 46.6485 26.0342L46.6489 26.0337L46.6504 26.032ZM60.2442 31.4238C60.9622 30.8006 61.8369 30.6917 62.7167 30.5821L62.7167 30.5821L62.7168 30.5821L62.7168 30.5821L62.7168 30.5821L62.7169 30.5821L62.7169 30.5821L62.717 30.5821L62.717 30.5821L62.7171 30.5821L62.7171 30.5821L62.7172 30.5821C62.9156 30.5573 63.1143 30.5326 63.3115 30.5019C63.7646 30.4317 64.2178 30.2999 64.6535 30.1595C64.7493 30.1243 64.8887 29.9487 64.8713 29.8609C64.7406 28.9917 64.4705 28.1751 63.7472 27.6132C63.6252 27.5166 63.4248 27.4552 63.2854 27.4727C62.2223 27.6395 61.2376 28.0083 60.3575 28.6317C60.2529 28.7107 60.1484 28.7897 60.0525 28.8776C59.1463 29.7205 59.2073 30.6775 60.2442 31.4238ZM60.5845 45.8298C59.7044 44.2494 55.8702 42.7392 54.8769 43.5909C54.8769 43.6172 54.8769 43.6611 54.8943 43.6699C56.0794 44.706 56.9333 46.0142 57.7612 47.34C57.9616 47.6649 58.162 47.6825 58.4757 47.5771C59.2077 47.3313 60.0442 46.6464 60.5845 45.8298ZM66.4393 62.8709C66.3086 63.547 66.0385 63.7489 65.3414 63.7665C65.2189 63.7435 65.0964 63.7252 64.9745 63.7071C64.7235 63.6696 64.4752 63.6326 64.2347 63.5557C63.4504 63.3187 63.1106 62.7655 63.2587 61.949C63.311 61.6504 63.4243 61.3607 63.555 61.0885C64.0256 60.1315 64.8011 59.4554 65.6899 58.911C65.9949 58.7266 66.3609 58.6125 66.7094 58.551C66.8705 58.5198 67.0493 58.5641 67.2268 58.608C67.299 58.6259 67.3709 58.6437 67.4414 58.6564C67.4266 58.7208 67.4154 58.7888 67.404 58.857C67.3752 59.0306 67.346 59.2064 67.2584 59.3325C66.753 60.0612 66.6049 60.8778 66.5613 61.7382C66.5439 62.1158 66.509 62.5021 66.4393 62.8709ZM64.8272 61.589C64.4438 61.589 64.104 61.9314 64.1127 62.3177C64.1149 62.4173 64.1376 62.5119 64.1765 62.5975C64.1381 62.5124 64.1158 62.4186 64.1136 62.3198C64.1136 61.9335 64.4448 61.5911 64.8282 61.5911C65.1113 61.5911 65.3581 61.7604 65.4701 62.0066C65.3586 61.7593 65.1112 61.589 64.8272 61.589ZM60.5058 33.861C60.8453 33.8893 61.1826 33.9173 61.5183 33.9452L61.5184 33.9452L61.5186 33.9452L61.5186 33.9452L61.5187 33.9452L61.5188 33.9452C62.8458 34.0554 64.1462 34.1633 65.4466 34.2824C65.83 34.3175 65.952 34.1683 65.9869 33.8083C66.0566 33.0356 65.7951 32.4298 65.1503 32.0083C64.0611 31.3059 62.1179 31.4288 61.1245 32.2717C60.6191 32.6932 60.4012 33.2288 60.5058 33.861ZM59.7218 23.7549C60.7675 24.3256 61.7609 24.9051 62.458 25.8973C60.8546 26.8455 59.3036 27.7674 57.7525 28.6981C57.4649 28.2416 57.4301 27.9343 57.6392 27.2933C58.0368 26.0588 58.7895 25.0298 59.5525 23.9867L59.5529 23.9862L59.5535 23.9853C59.6096 23.9086 59.6658 23.8318 59.7218 23.7549ZM57.3517 41.9945C58.4386 42.3668 59.312 43.0397 60.2022 43.7256L60.2023 43.7256C60.7395 44.1395 61.2828 44.5581 61.883 44.9183C61.9646 44.7888 62.0458 44.6604 62.1266 44.5328L62.1276 44.5311L62.1283 44.5301L62.1284 44.5299C62.4524 44.0179 62.7686 43.5182 63.0681 43.013C63.1116 42.9427 63.0855 42.7408 63.0158 42.6881C61.883 41.7925 60.663 41.0725 59.1729 41.0023C58.4323 40.9847 57.77 41.1779 57.3517 41.9945ZM65.6389 36.1647C65.6215 36.884 65.6036 37.6207 65.1422 38.226C64.9611 38.166 64.782 38.1053 64.604 38.045C64.1314 37.8849 63.6675 37.7278 63.199 37.5938C62.3712 37.3743 61.5434 37.1724 60.7068 36.988C60.3931 36.9177 60.3234 36.7597 60.367 36.4612C60.4803 35.6358 61.0467 35.1266 62.0052 35.0915C63.2339 35.0388 64.3667 35.4514 65.4734 35.9431C65.5518 35.9783 65.6389 36.0924 65.6389 36.1626L65.6389 36.1647ZM62.5611 62.8882C62.375 63.1173 62.2086 63.3188 62.0534 63.5066L62.0529 63.5072C61.8812 63.715 61.7232 63.9062 61.5677 64.0999C61.5143 64.1665 61.4586 64.2316 61.4031 64.2966L61.403 64.2967C61.2685 64.4542 61.1348 64.6107 61.0361 64.7847C60.7137 65.3466 60.8706 65.9613 61.4631 66.2159C61.9337 66.4178 62.4565 66.5495 62.9619 66.6022C64.3126 66.7515 65.6458 66.6198 66.9529 66.2247C66.8657 65.6101 66.5869 65.3291 65.9769 65.2676C65.6724 65.2402 65.3646 65.2299 65.0575 65.2197L65.0574 65.2196L65.0572 65.2196L65.057 65.2196C64.8722 65.2134 64.6876 65.2073 64.5043 65.1974C63.3192 65.1271 63.1275 64.9428 62.8922 63.7838C62.8513 63.5895 62.7712 63.3991 62.6861 63.1968C62.6443 63.0974 62.6013 62.9952 62.5611 62.8882ZM63.6601 41.4215C62.2659 40.6927 60.8455 40.0606 59.2683 39.7445C59.4948 38.6206 60.2355 38.1201 61.4032 38.2694C62.5796 38.4099 63.6252 38.9016 64.5838 39.5777C64.6796 39.6479 64.8016 39.8059 64.7755 39.8762C64.5838 40.3679 64.3833 40.8684 64.1306 41.3337C64.0784 41.4215 63.7734 41.483 63.6601 41.4215ZM67.486 61.0281C67.486 61.9412 67.6341 62.0905 68.3313 61.9588C68.6188 61.9061 68.9238 61.7832 69.1591 61.6076C70.0653 60.9315 70.318 59.2984 69.6906 58.394C69.5425 58.1833 69.4118 58.0955 69.1678 58.2711C68.157 59.0174 67.5296 59.9569 67.486 61.0281Z" fill="#20113D"/>
<defs>
<filter id="filter0_d" x="0" y="0" width="112" height="112" filterUnits="userSpaceOnUse" color-interpolation-filters="sRGB">
<feFlood flood-opacity="0" result="BackgroundImageFix"/>
<feColorMatrix in="SourceAlpha" type="matrix" values="0 0 0 0 0 0 0 0 0 0 0 0 0 0 0 0 0 0 127 0"/>
<feOffset dy="4"/>
<feGaussianBlur stdDeviation="2"/>
<feColorMatrix type="matrix" values="0 0 0 0 0 0 0 0 0 0 0 0 0 0 0 0 0 0 0.25 0"/>
<feBlend mode="normal" in2="BackgroundImageFix" result="effect1_dropShadow"/>
<feBlend mode="normal" in="SourceGraphic" in2="effect1_dropShadow" result="shape"/>
</filter>
</defs>
</svg>
