<svg width="120" height="120" viewBox="0 0 120 120" fill="none" xmlns="http://www.w3.org/2000/svg">
<circle cx="60" cy="60" r="58.5" stroke="white" stroke-width="3"/>
<g filter="url(#filter0_d)">
<circle cx="60" cy="60" r="52" fill="white"/>
</g>
<path d="M73.1979 55.9514C73.8219 57.2855 74.4459 58.6197 75.0926 60.0129C74.5593 60.4498 74.0034 60.9339 73.4135 61.3825C71.8365 62.575 70.3049 63.8266 68.6712 64.9246C64.4848 67.7465 59.8674 68.8918 54.8982 68.4431C53.6842 68.3368 52.4022 67.9 51.8917 67.534C52.1867 65.4087 52.4703 63.3425 52.7539 61.2763C52.6859 61.2527 52.6065 61.2409 52.5384 61.2173C52.1527 62.0319 51.7783 62.8466 51.3812 63.6495C50.4395 65.5858 49.895 67.6756 49.2369 69.73C48.3293 72.5283 46.707 74.6772 43.9501 75.728C43.814 75.787 43.7005 76.0231 43.6438 76.2002C43.3828 77.0622 43.19 77.9477 42.9063 78.7978C42.2824 80.6869 41.1138 82.1509 39.5368 83.2726C38.8334 83.7685 38.13 84.2762 37.4607 84.8193C36.8821 85.2798 36.9048 85.4805 37.472 85.941C37.9372 86.3188 38.4137 86.673 38.8334 87.0862C39.3553 87.6057 39.5936 88.2669 39.4007 89.0226C39.3553 89.1997 39.0944 89.4358 38.9355 89.4358C35.2143 89.4594 31.4818 89.4594 27.7606 89.4476C27.6244 89.4476 27.4315 89.4004 27.3521 89.3059C26.8303 88.6447 26.2517 87.9954 25.8432 87.2633C25.639 86.8973 25.6163 86.2834 25.7525 85.8701C27.0685 81.7023 28.7589 77.747 31.9469 74.7126C32.0831 74.5827 32.1625 74.2993 32.1738 74.0986C32.2532 71.0997 32.5936 68.1243 33.331 65.2316C33.9664 62.7285 34.6471 60.2255 35.8497 57.9231C38.062 53.7199 40.9209 50.2132 45.3115 48.3241C49.0895 46.7065 52.7766 46.9545 56.3731 48.8672C57.0991 49.2568 57.7231 49.859 58.3585 50.3313C57.95 49.4103 57.2353 48.6547 56.4638 47.9581C60.4006 46.3996 64.4168 45.1126 67.877 42.704C68.1607 43.7312 68.433 44.782 68.7279 45.8328C68.7733 45.9745 68.8641 46.1044 68.9775 46.2225C68.7506 44.7584 68.7506 43.2943 69.2838 41.9483C69.783 40.6732 70.3843 39.3862 71.1558 38.2764C73.0504 35.5844 75.3308 33.2466 77.8721 31.204C77.9742 31.1214 78.0763 31.0387 78.1898 30.9561C79.2562 30.2477 80.266 29.2677 81.6274 29.5511C83.488 29.9289 85.0423 30.9443 86.1087 32.6091C86.415 33.0813 86.7667 33.4119 87.2546 33.589C88.5252 34.0495 89.4782 34.8406 90.0909 36.1275C90.4199 36.8241 90.9644 37.4027 91.4069 38.0402C91.7019 38.4653 91.7586 38.8195 91.4296 39.3154C91.1573 39.7286 91.0212 40.2836 90.9418 40.7913C90.8396 41.3934 91.0666 41.783 91.6792 42.1136C93.2789 42.9637 94.2092 44.8647 93.3242 46.7892C93.1768 47.108 93.0406 47.4268 92.9158 47.7574C92.3259 49.3395 91.2027 49.8944 89.6597 49.3395C89.5576 49.3041 89.4442 49.2686 89.3648 49.2332C89.0811 49.6465 88.7975 50.0479 88.4912 50.4729C88.3891 50.3431 88.321 50.2958 88.321 50.2604C88.4118 49.245 87.8218 48.6429 87.1638 48.0289C84.0893 45.148 80.3227 45.6675 77.7473 47.3323C78.5869 47.1552 79.4037 46.9309 80.2433 46.801C83.5107 46.3287 86.347 47.8518 87.8559 50.898C88.8996 52.9996 89.6371 55.1957 89.4555 57.6279C89.4215 58.112 89.3875 58.6433 89.1946 59.0684C88.5366 60.5325 88.7408 62.0083 89.1038 63.4606C89.4669 64.9246 89.8186 66.4477 90.5106 67.7465C93.0179 72.4338 93.2221 77.499 93.0406 82.635C92.9612 84.8429 92.2805 86.8029 90.5333 88.2315C89.5576 89.0344 88.5139 89.5893 87.2092 89.483C86.6079 89.4358 85.9953 89.424 85.394 89.483C84.2595 89.6129 83.4766 89.0226 82.8073 88.1961C82.0812 87.3106 81.7522 86.2834 81.9564 85.1263C82.0131 84.8193 82.2287 84.4415 82.4783 84.2998C82.8413 84.0991 83.0909 84.4533 83.3632 84.7248C83.7149 85.0791 84.18 85.3388 84.6225 85.5868C85.0082 85.7993 85.2124 85.6222 85.2578 85.1735C85.3032 84.6422 85.1444 84.1935 84.7586 83.8511C82.5917 81.9266 81.2303 79.4117 80.005 76.8024C79.0634 74.7834 78.4621 72.67 78.2465 70.4267C78.0877 68.7383 78.3713 67.0971 78.6776 65.4559C78.8251 64.7121 78.9726 63.9565 79.018 63.189C79.1201 61.6659 78.6096 60.379 77.3502 59.5643C75.796 58.5607 74.4119 57.3564 73.3 55.8451C73.3114 55.8805 73.2547 55.9159 73.1979 55.9514Z" fill="#20113D"/>
<path d="M76.5214 61.3135C77.1794 61.8684 77.4177 62.506 77.2815 63.297C77.0433 64.7493 76.737 66.1897 76.5554 67.6538C76.1697 70.8535 76.8844 73.876 78.0757 76.7924C78.2912 77.3237 78.3139 77.7487 78.087 78.28C77.0546 80.7123 75.9315 83.0855 74.4793 85.2933C72.596 88.1506 69.9639 89.473 66.6738 89.473C66.0271 89.473 65.3918 89.5084 64.7451 89.4612C64.5182 89.4494 64.2346 89.2959 64.1098 89.107C63.0547 87.6193 63.2362 84.5377 64.4502 83.1799C64.5863 83.0264 64.8926 82.8847 65.0628 82.9438C65.2216 83.0028 65.3237 83.298 65.4258 83.5105C65.5506 83.7703 65.5847 84.1009 65.7662 84.3016C65.9704 84.5495 66.3221 84.9037 66.549 84.8565C66.7873 84.8093 67.0255 84.3724 67.1276 84.0654C67.2297 83.7703 67.1957 83.4042 67.139 83.0973C66.912 81.9048 66.5263 80.7359 66.4242 79.5434C66.1179 76.1312 66.4129 72.778 67.831 69.6256C68.16 68.9053 68.5344 68.1733 69.0223 67.5593C69.5328 66.8982 70.1681 66.3196 70.8148 65.8001C71.9266 64.891 73.0952 64.0645 74.2297 63.179C74.9898 62.5768 75.7386 61.9511 76.5214 61.3135Z" fill="#20113D"/>
<path d="M51.2555 69.4346C52.2198 69.7297 53.1274 70.0131 54.1145 70.3083C53.9443 72.3391 53.5926 74.3108 51.8 75.7041C52.8324 76.9792 53.5585 78.4314 53.5585 80.1198C53.5585 81.2887 53.3543 82.4694 53.2409 83.6383C53.2182 83.8744 53.1841 84.1106 53.1728 84.3467C53.1274 85.0079 53.377 85.4802 53.9443 85.799C54.6136 86.165 55.3057 86.5074 55.9297 86.9442C56.4516 87.3103 56.9394 87.7707 57.3705 88.2548C57.6315 88.55 57.7336 88.9986 57.9605 89.4827C57.6201 89.4827 57.4386 89.4827 57.2571 89.4827C54.0577 89.4827 50.8697 89.4945 47.6704 89.4709C47.3754 89.4709 47.0578 89.3411 46.7855 89.1994C45.9573 88.7625 45.1518 88.302 44.3463 87.8298C44.1307 87.6999 43.8925 87.4874 43.813 87.263C43.3706 85.9761 42.9622 84.6655 42.5651 83.3549C42.531 83.2251 42.6105 83.0125 42.7012 82.8945C43.9605 81.3596 44.6412 79.5413 45.1858 77.6404C45.2539 77.4161 45.3787 77.1445 45.5602 77.0382C47.8406 75.7159 49.3154 73.6614 50.4386 71.3001C50.7336 70.6861 50.9832 70.0485 51.2555 69.4346Z" fill="#20113D"/>
<defs>
<filter id="filter0_d" x="4" y="8" width="112" height="112" filterUnits="userSpaceOnUse" color-interpolation-filters="sRGB">
<feFlood flood-opacity="0" result="BackgroundImageFix"/>
<feColorMatrix in="SourceAlpha" type="matrix" values="0 0 0 0 0 0 0 0 0 0 0 0 0 0 0 0 0 0 127 0"/>
<feOffset dy="4"/>
<feGaussianBlur stdDeviation="2"/>
<feColorMatrix type="matrix" values="0 0 0 0 0 0 0 0 0 0 0 0 0 0 0 0 0 0 0.25 0"/>
<feBlend mode="normal" in2="BackgroundImageFix" result="effect1_dropShadow"/>
<feBlend mode="normal" in="SourceGraphic" in2="effect1_dropShadow" result="shape"/>
</filter>
</defs>
</svg>
